#!OML:ASF G:\JayActor3\Patient Classification 1\Patient 1\Session 6\male.ASF
:FULLY-SPECIFIED
:DEGREES
327
root 42.1288 15.7019 -16.3062 141.638 -86.0792 -139.575
lowerback 1.07792 -1.17621 0.101431
upperback 4.12702 -1.61411 -1.04184
thorax 3.60521 -0.813929 -1.16388
lowerneck -6.06159 7.87488 9.66838
upperneck 9.96381 10.3995 -7.59944
head 4.88716 5.05275 -3.21475
rclavicle 5.36719e-015 -7.15625e-015
rhumerus -35.8259 -14.332 -82.7623
rradius 24.7646
rwrist 5.82097
rhand -16.5236 -6.87798
rfingers 7.12502
rthumb 9.69504 -36.6349
lclavicle 5.36719e-015 -7.15625e-015
lhumerus -24.0692 2.06253 87.2152
lradius 26.6395
lwrist 16.9437
lhand -16.499 10.8869
lfingers 7.12502
lthumb 9.7187 40.6426
rfemur -37.7886 3.99738 28.6279
rtibia 39.0916
rfoot -21.2399 -13.1876
rtoes -18.323
lfemur 15.118 10.8575 -23.4984
ltibia 1.59028e-014
lfoot -16.8912 -1.24934
ltoes -1.33759
328
root 42.0493 15.6982 -16.2857 138.464 -86.4492 -136.361
lowerback 1.07937 -1.17628 0.0617044
upperback 4.15609 -1.61362 -1.06723
thorax 3.63496 -0.814659 -1.1683
lowerneck -6.14463 7.78038 9.61546
upperneck 9.87001 10.2583 -7.51848
head 4.85264 4.98554 -3.19175
rclavicle 1.78906e-015 1.59028e-014
rhumerus -35.8777 -14.4038 -82.7467
rradius 24.6268
rwrist 5.91894
rhand -16.4247 -6.96214
rfingers 7.12502
rthumb 9.79046 -36.7145
lclavicle 1.78906e-015 1.59028e-014
lhumerus -23.9708 1.95049 87.3286
lradius 26.6303
lwrist 16.9409
lhand -16.5042 10.8605
lfingers 7.12502
lthumb 9.7137 40.6165
rfemur -37.9438 4.11859 28.6906
rtibia 38.0547
rfoot -20.8142 -12.5723
rtoes -18.7625
lfemur 15.3625 10.8482 -23.5741
ltibia -6.67916e-014
lfoot -16.971 -1.47403
ltoes -1.56739
329
root 41.9681 15.6942 -16.2649 134.362 -86.8182 -132.221
lowerback 1.08746 -1.18082 0.0246832
upperback 4.18109 -1.61911 -1.08947
thorax 3.65663 -0.818348 -1.17086
lowerneck -6.22906 7.68253 9.56098
upperneck 9.7896 10.1131 -7.43647
head 4.82219 4.91617 -3.16826
rclavicle 2.0276e-014 -1.51076e-014
rhumerus -35.918 -14.4945 -82.7153
rradius 24.4711
rwrist 6.06745
rhand -16.3294 -7.0475
rfingers 7.12502
rthumb 9.88241 -36.7956
lclavicle 2.0276e-014 -1.51076e-014
lhumerus -23.879 1.86832 87.439
lradius 26.5994
lwrist 16.9154
lhand -16.5075 10.8387
lfingers 7.12502
lthumb 9.7105 40.5949
rfemur -38.1046 4.21922 28.7391
rtibia 37.0869
rfoot -20.3955 -11.8701
rtoes -19.0275
lfemur 15.6177 10.8219 -23.646
ltibia 0
lfoot -17.044 -1.71521
ltoes -1.79949
330
root 41.8858 15.6898 -16.244 129.121 -87.1751 -126.939
lowerback 1.10299 -1.18644 -0.0149089
upperback 4.20082 -1.62606 -1.1081
thorax 3.66878 -0.822914 -1.16801
lowerneck -6.31437 7.58147 9.51265
upperneck 9.72057 9.9642 -7.36138
head 4.79595 4.84468 -3.14797
rclavicle -3.37934e-015 -1.19271e-014
rhumerus -35.9542 -14.572 -82.6813
rradius 24.3131
rwrist 6.2445
rhand -16.2707 -7.09423
rfingers 7.12502
rthumb 9.93897 -36.8396
lclavicle -3.37934e-015 -1.19271e-014
lhumerus -23.799 1.82452 87.5449
lradius 26.5503
lwrist 16.8654
lhand -16.5113 10.8176
lfingers 7.12502
lthumb 9.70689 40.574
rfemur -38.2756 4.28488 28.7789
rtibia 36.1925
rfoot -19.9884 -11.0709
rtoes -19.1705
lfemur 15.8762 10.7856 -23.7171
ltibia -1.59028e-014
lfoot -17.1035 -1.97556
ltoes -2.02589
331
root 41.802 15.685 -16.2229 122.309 -87.5115 -120.086
lowerback 1.12474 -1.19612 -0.0534961
upperback 4.21599 -1.63838 -1.12772
thorax 3.67253 -0.830116 -1.1666
lowerneck -6.40417 7.4841 9.47097
upperneck 9.66632 9.82007 -7.28784
head 4.77602 4.77544 -3.12839
rclavicle -3.77691e-015 8.74653e-015
rhumerus -35.9891 -14.6229 -82.6596
rradius 24.1688
rwrist 6.42707
rhand -16.2627 -7.10575
rfingers 7.12502
rthumb 9.94673 -36.8507
lclavicle -3.77691e-015 8.74653e-015
lhumerus -23.7291 1.81371 87.6399
lradius 26.4803
lwrist 16.7961
lhand -16.5176 10.7856
lfingers 7.12502
lthumb 9.70076 40.5422
rfemur -38.4557 4.29703 28.8158
rtibia 35.3736
rfoot -19.5919 -10.1821
rtoes -19.2749
lfemur 16.1351 10.7384 -23.7892
ltibia -1.59028e-014
lfoot -17.1456 -2.25039
ltoes -2.26824
332
root 41.7173 15.6796 -16.2017 113.181 -87.8201 -110.908
lowerback 1.14733 -1.2129 -0.105309
upperback 4.22827 -1.66004 -1.14461
thorax 3.67308 -0.842449 -1.15509
lowerneck -6.49853 7.38994 9.42917
upperneck 9.61713 9.68063 -7.21798
head 4.75915 4.70816 -3.10928
rclavicle 1.78906e-015 4.77083e-015
rhumerus -36.0122 -14.6508 -82.6438
rradius 24.0325
rwrist 6.61408
rhand -16.3098 -7.08002
rfingers 7.12502
rthumb 9.90131 -36.8272
lclavicle 1.78906e-015 4.77083e-015
lhumerus -23.669 1.83748 87.7297
lradius 26.3995
lwrist 16.7154
lhand -16.5209 10.767
lfingers 7.12502
lthumb 9.69758 40.5238
rfemur -38.6491 4.25413 28.8425
rtibia 34.6285
rfoot -19.2202 -9.23172
rtoes -19.3817
lfemur 16.3872 10.6699 -23.868
ltibia 1.01778e-013
lfoot -17.1638 -2.55563
ltoes -2.47369
333
root 41.6307 15.6733 -16.1804 101.502 -88.061 -99.1824
lowerback 1.17057 -1.2313 -0.162634
upperback 4.24094 -1.68396 -1.15674
thorax 3.67395 -0.856183 -1.13563
lowerneck -6.58891 7.30205 9.38871
upperneck 9.57003 9.55045 -7.15202
head 4.74346 4.6453 -3.0909
rclavicle 1.65985e-014 2.22639e-014
rhumerus -36.0304 -14.6521 -82.6301
rradius 23.9188
rwrist 6.7983
rhand -16.392 -7.01784
rfingers 7.12502
rthumb 9.82201 -36.7688
lclavicle 1.65985e-014 2.22639e-014
lhumerus -23.6231 1.8822 87.819
lradius 26.3073
lwrist 16.6302
lhand -16.5403 10.7158
lfingers 7.12502
lthumb 9.67891 40.4735
rfemur -38.8375 4.17944 28.8629
rtibia 33.9549
rfoot -18.8776 -8.23911
rtoes -19.4894
lfemur 16.6478 10.601 -23.9441
ltibia 7.31528e-014
lfoot -17.165 -2.88776
ltoes -2.66737
334
root 41.5431 15.6662 -16.1592 86.9026 -88.2086 -84.5236
lowerback 1.18982 -1.25567 -0.234987
upperback 4.24956 -1.71574 -1.16184
thorax 3.67343 -0.874398 -1.1007
lowerneck -6.675 7.21519 9.34044
upperneck 9.52073 9.42311 -7.08848
head 4.7265 4.5835 -3.07198
rclavicle -2.3059e-014 -7.95139e-016
rhumerus -36.0364 -14.6265 -82.6187
rradius 23.8267
rwrist 6.95919
rhand -16.4995 -6.9439
rfingers 7.12502
rthumb 9.71827 -36.6997
lclavicle -2.3059e-014 -7.95139e-016
lhumerus -23.5883 1.93498 87.9131
lradius 26.2106
lwrist 16.5576
lhand -16.5654 10.6702
lfingers 7.12502
lthumb 9.65466 40.429
rfemur -39.0387 4.09965 28.8574
rtibia 33.3496
rfoot -18.5826 -7.25875
rtoes -19.5671
lfemur 16.8986 10.5176 -24.0228
ltibia -5.40694e-014
lfoot -17.1468 -3.24144
ltoes -2.84542
335
root 41.4538 15.6583 -16.1379 70.7223 -88.2294 -68.2833
lowerback 1.20608 -1.28445 -0.319126
upperback 4.26015 -1.75346 -1.15996
thorax 3.67718 -0.896099 -1.05224
lowerneck -6.76078 7.13261 9.28606
upperneck 9.46758 9.30266 -7.02881
head 4.70892 4.52467 -3.05276
rclavicle -9.34288e-015 -9.54166e-015
rhumerus -36.023 -14.5792 -82.6056
rradius 23.7539
rwrist 7.08559
rhand -16.6056 -6.87637
rfingers 7.12502
rthumb 9.61589 -36.6369
lclavicle -9.34288e-015 -9.54166e-015
lhumerus -23.5657 1.98889 88.0132
lradius 26.1193
lwrist 16.498
lhand -16.5964 10.6528
lfingers 7.12502
lthumb 9.62473 40.4129
rfemur -39.2351 4.04249 28.8142
rtibia 32.8125
rfoot -18.3268 -6.3359
rtoes -19.5977
lfemur 17.1572 10.4285 -24.1013
ltibia 3.81667e-014
lfoot -17.1156 -3.61691
ltoes -3.01459
336
root 41.3627 15.6501 -16.1167 55.1839 -88.1132 -52.6821
lowerback 1.21534 -1.31525 -0.413723
upperback 4.26627 -1.79371 -1.15269
thorax 3.68083 -0.919432 -0.992541
lowerneck -6.82154 7.04747 9.24447
upperneck 9.40482 9.18123 -6.98862
head 4.68579 4.46526 -3.04257
rclavicle 5.06901e-015 -1.03368e-014
rhumerus -36.0052 -14.5252 -82.5838
rradius 23.6974
rwrist 7.182
rhand -16.697 -6.84282
rfingers 7.12502
rthumb 9.52773 -36.6074
lclavicle 5.06901e-015 -1.03368e-014
lhumerus -23.5652 2.03226 88.1177
lradius 26.0247
lwrist 16.4426
lhand -16.6383 10.6317
lfingers 7.12502
lthumb 9.58431 40.3937
rfemur -39.4258 4.03717 28.7162
rtibia 32.3419
rfoot -18.1103 -5.51096
rtoes -19.506
lfemur 17.4215 10.3331 -24.1798
ltibia 9.54166e-015
lfoot -17.0695 -3.99941
ltoes -3.2023
337
root 41.2695 15.6416 -16.0956 41.989 -87.8741 -39.4237
lowerback 1.21779 -1.3522 -0.519842
upperback 4.27655 -1.84219 -1.13832
thorax 3.69332 -0.947393 -0.919569
lowerneck -6.89545 6.96503 9.20143
upperneck 9.35106 9.06373 -6.95509
head 4.66829 4.40706 -3.03332
rclavicle -7.15625e-015 -1.27222e-014
rhumerus -35.956 -14.4619 -82.557
rradius 23.6445
rwrist 7.2463
rhand -16.7638 -6.85261
rfingers 7.12502
rthumb 9.46322 -36.6201
lclavicle -7.15625e-015 -1.27222e-014
lhumerus -23.5742 2.06578 88.2258
lradius 25.934
lwrist 16.3927
lhand -16.6774 10.615
lfingers 7.12502
lthumb 9.54659 40.3788
rfemur -39.6075 4.09393 28.5533
rtibia 31.941
rfoot -17.9406 -4.82099
rtoes -19.3315
lfemur 17.6949 10.2267 -24.2588
ltibia 5.40694e-014
lfoot -17.0078 -4.3835
ltoes -3.41936
